{
	"asset":{
		"generator":"Khronos glTF Blender I/O v4.0.44",
		"version":"2.0"
	},
	"scene":0,
	"scenes":[
		{
			"name":"Scene",
			"nodes":[
				0,
				1,
				2,
				3,
				4,
				5,
				6,
				7,
				8,
				9,
				10,
				11,
				12,
				13
			]
		}
	],
	"nodes":[
		{
			"mesh":0,
			"name":"ROOM"
		},
		{
			"mesh":1,
			"name":"CORRIDOR"
		},
		{
			"mesh":2,
			"name":"ROOM_CHILDREN",
			"translation":[
				3.6118855476379395,
				0,
				-1.355170488357544
			]
		},
		{
			"mesh":3,
			"name":"ROOM_BATH",
			"translation":[
				5.436069011688232,
				0,
				-1.3676224946975708
			]
		},
		{
			"mesh":4,
			"name":"ROOM_ENGINEERING",
			"translation":[
				7.874493598937988,
				0,
				-0.42701882123947144
			]
		},
		{
			"mesh":5,
			"name":"ROOM_LIVING",
			"translation":[
				6.299341678619385,
				0,
				3.197037696838379
			]
		},
		{
			"mesh":6,
			"name":"ROOM_BED",
			"translation":[
				6.310281753540039,
				0,
				10.760004043579102
			]
		},
		{
			"mesh":7,
			"name":"ROOM_STORAGE",
			"translation":[
				8.516210556030273,
				0,
				10.857856750488281
			]
		},
		{
			"mesh":8,
			"name":"ROOM_BATH2",
			"translation":[
				8.487255096435547,
				0,
				12.69796371459961
			]
		},
		{
			"mesh":9,
			"name":"POOL"
		},
		{
			"mesh":10,
			"name":"GARDEN",
			"translation":[
				-3.8293068408966064,
				-0.06149425357580185,
				11.814020156860352
			]
		},
		{
			"mesh":11,
			"name":"PARKING",
			"translation":[
				9.073348999023438,
				-0.05785152316093445,
				-4.854715347290039
			]
		},
		{
			"mesh":12,
			"name":"POOL_HOME"
		},
		{
			"mesh":13,
			"name":"BACKGROUND",
			"translation":[
				-11.660038948059082,
				-0.05785152316093445,
				-5.6357879638671875
			]
		}
	],
	"meshes":[
		{
			"name":"Plane",
			"primitives":[
				{
					"attributes":{
						"POSITION":0,
						"TEXCOORD_0":1
					},
					"indices":2
				}
			]
		},
		{
			"name":"Plane.001",
			"primitives":[
				{
					"attributes":{
						"POSITION":3,
						"TEXCOORD_0":4
					},
					"indices":5
				}
			]
		},
		{
			"name":"Plane.002",
			"primitives":[
				{
					"attributes":{
						"POSITION":6,
						"TEXCOORD_0":7
					},
					"indices":8
				}
			]
		},
		{
			"name":"Plane.003",
			"primitives":[
				{
					"attributes":{
						"POSITION":9,
						"TEXCOORD_0":10
					},
					"indices":11
				}
			]
		},
		{
			"name":"Plane.004",
			"primitives":[
				{
					"attributes":{
						"POSITION":12,
						"TEXCOORD_0":13
					},
					"indices":14
				}
			]
		},
		{
			"name":"Plane.005",
			"primitives":[
				{
					"attributes":{
						"POSITION":15,
						"TEXCOORD_0":16
					},
					"indices":17
				}
			]
		},
		{
			"name":"Plane.006",
			"primitives":[
				{
					"attributes":{
						"POSITION":18,
						"TEXCOORD_0":19
					},
					"indices":20
				}
			]
		},
		{
			"name":"Plane.007",
			"primitives":[
				{
					"attributes":{
						"POSITION":21,
						"TEXCOORD_0":22
					},
					"indices":23
				}
			]
		},
		{
			"name":"Plane.008",
			"primitives":[
				{
					"attributes":{
						"POSITION":24,
						"TEXCOORD_0":25
					},
					"indices":26
				}
			]
		},
		{
			"name":"Plane.009",
			"primitives":[
				{
					"attributes":{
						"POSITION":27,
						"TEXCOORD_0":28
					},
					"indices":29
				}
			]
		},
		{
			"name":"Plane.010",
			"primitives":[
				{
					"attributes":{
						"POSITION":30,
						"TEXCOORD_0":31
					},
					"indices":32
				}
			]
		},
		{
			"name":"Plane.011",
			"primitives":[
				{
					"attributes":{
						"POSITION":33,
						"TEXCOORD_0":34
					},
					"indices":35
				}
			]
		},
		{
			"name":"Plane.012",
			"primitives":[
				{
					"attributes":{
						"POSITION":36,
						"TEXCOORD_0":37
					},
					"indices":38
				}
			]
		},
		{
			"name":"Plane.013",
			"primitives":[
				{
					"attributes":{
						"POSITION":39,
						"TEXCOORD_0":40
					},
					"indices":41
				}
			]
		}
	],
	"accessors":[
		{
			"bufferView":0,
			"componentType":5126,
			"count":95,
			"max":[
				1.1510107517242432,
				2.721057176589966,
				1.039046049118042
			],
			"min":[
				-1.6456221342086792,
				0,
				-3.5397400856018066
			],
			"type":"VEC3"
		},
		{
			"bufferView":1,
			"componentType":5126,
			"count":95,
			"type":"VEC2"
		},
		{
			"bufferView":2,
			"componentType":5123,
			"count":219,
			"type":"SCALAR"
		},
		{
			"bufferView":3,
			"componentType":5126,
			"count":639,
			"max":[
				10.381640434265137,
				2.6300079822540283,
				2.5819449424743652
			],
			"min":[
				1.1510107517242432,
				0,
				-0.3676224648952484
			],
			"type":"VEC3"
		},
		{
			"bufferView":4,
			"componentType":5126,
			"count":639,
			"type":"VEC2"
		},
		{
			"bufferView":5,
			"componentType":5123,
			"count":2091,
			"type":"SCALAR"
		},
		{
			"bufferView":6,
			"componentType":5126,
			"count":355,
			"max":[
				1.0857185125350952,
				2.715085744857788,
				1
			],
			"min":[
				-2.580486536026001,
				0,
				-2.1845695972442627
			],
			"type":"VEC3"
		},
		{
			"bufferView":7,
			"componentType":5126,
			"count":355,
			"type":"VEC2"
		},
		{
			"bufferView":8,
			"componentType":5123,
			"count":945,
			"type":"SCALAR"
		},
		{
			"bufferView":9,
			"componentType":5126,
			"count":144,
			"max":[
				0.496759831905365,
				2.6300079822540283,
				1
			],
			"min":[
				-0.6860345602035522,
				0,
				-1.9940718412399292
			],
			"type":"VEC3"
		},
		{
			"bufferView":10,
			"componentType":5126,
			"count":144,
			"type":"VEC2"
		},
		{
			"bufferView":11,
			"componentType":5123,
			"count":321,
			"type":"SCALAR"
		},
		{
			"bufferView":12,
			"componentType":5126,
			"count":688,
			"max":[
				-0.24866780638694763,
				2.6300079822540283,
				1
			],
			"min":[
				-1.7232720851898193,
				0,
				-3.1136257648468018
			],
			"type":"VEC3"
		},
		{
			"bufferView":13,
			"componentType":5126,
			"count":688,
			"type":"VEC2"
		},
		{
			"bufferView":14,
			"componentType":5123,
			"count":1995,
			"type":"SCALAR"
		},
		{
			"bufferView":15,
			"componentType":5126,
			"count":1569,
			"max":[
				3.9102725982666016,
				2.6300079822540283,
				6.5629658699035645
			],
			"min":[
				-1.5106444358825684,
				-9.313225746154785e-10,
				-1.1122703552246094
			],
			"type":"VEC3"
		},
		{
			"bufferView":16,
			"componentType":5126,
			"count":1569,
			"type":"VEC2"
		},
		{
			"bufferView":17,
			"componentType":5123,
			"count":5991,
			"type":"SCALAR"
		},
		{
			"bufferView":18,
			"componentType":5126,
			"count":586,
			"max":[
				1.2059293985366821,
				2.6452579498291016,
				3.051837205886841
			],
			"min":[
				-3.0473875999450684,
				0,
				-1
			],
			"type":"VEC3"
		},
		{
			"bufferView":19,
			"componentType":5126,
			"count":586,
			"type":"VEC2"
		},
		{
			"bufferView":20,
			"componentType":5123,
			"count":1704,
			"type":"SCALAR"
		},
		{
			"bufferView":21,
			"componentType":5126,
			"count":280,
			"max":[
				1.6416997909545898,
				2.5100080966949463,
				0.3824446201324463
			],
			"min":[
				-1,
				0,
				-1.1295485496520996
			],
			"type":"VEC3"
		},
		{
			"bufferView":22,
			"componentType":5126,
			"count":280,
			"type":"VEC2"
		},
		{
			"bufferView":23,
			"componentType":5123,
			"count":612,
			"type":"SCALAR"
		},
		{
			"bufferView":24,
			"componentType":5126,
			"count":238,
			"max":[
				1.7632746696472168,
				2.6691150665283203,
				1.1138763427734375
			],
			"min":[
				-1,
				0,
				-1.386670708656311
			],
			"type":"VEC3"
		},
		{
			"bufferView":25,
			"componentType":5126,
			"count":238,
			"type":"VEC2"
		},
		{
			"bufferView":26,
			"componentType":5123,
			"count":672,
			"type":"SCALAR"
		},
		{
			"bufferView":27,
			"componentType":5126,
			"count":251,
			"max":[
				4.788697242736816,
				3.5847504138946533,
				12.206741333007812
			],
			"min":[
				-2.1649253368377686,
				-0.06133124977350235,
				1.213099479675293
			],
			"type":"VEC3"
		},
		{
			"bufferView":28,
			"componentType":5126,
			"count":251,
			"type":"VEC2"
		},
		{
			"bufferView":29,
			"componentType":5123,
			"count":582,
			"type":"SCALAR"
		},
		{
			"bufferView":30,
			"componentType":5126,
			"count":197,
			"max":[
				13.72519588470459,
				3.646244764328003,
				3.5085089206695557
			],
			"min":[
				-6.830732345581055,
				-0.231634259223938,
				-18.44980812072754
			],
			"type":"VEC3"
		},
		{
			"bufferView":31,
			"componentType":5126,
			"count":197,
			"type":"VEC2"
		},
		{
			"bufferView":32,
			"componentType":5123,
			"count":612,
			"type":"SCALAR"
		},
		{
			"bufferView":33,
			"componentType":5126,
			"count":258,
			"max":[
				10.37598991394043,
				3.64260196685791,
				20.177244186401367
			],
			"min":[
				-1.0965299606323242,
				0,
				-1.7810724973678589
			],
			"type":"VEC3"
		},
		{
			"bufferView":34,
			"componentType":5126,
			"count":258,
			"type":"VEC2"
		},
		{
			"bufferView":35,
			"componentType":5123,
			"count":702,
			"type":"SCALAR"
		},
		{
			"bufferView":36,
			"componentType":5126,
			"count":159,
			"max":[
				9.895889282226562,
				3.5847504138946533,
				14.145832061767578
			],
			"min":[
				-2.0956451892852783,
				-0.06133124977350235,
				1.213099479675293
			],
			"type":"VEC3"
		},
		{
			"bufferView":37,
			"componentType":5126,
			"count":159,
			"type":"VEC2"
		},
		{
			"bufferView":38,
			"componentType":5123,
			"count":408,
			"type":"SCALAR"
		},
		{
			"bufferView":39,
			"componentType":5126,
			"count":137,
			"max":[
				32.30149459838867,
				9.226621627807617,
				21.93583869934082
			],
			"min":[
				-0.17907214164733887,
				0,
				-2.327172040939331
			],
			"type":"VEC3"
		},
		{
			"bufferView":40,
			"componentType":5126,
			"count":137,
			"type":"VEC2"
		},
		{
			"bufferView":41,
			"componentType":5123,
			"count":474,
			"type":"SCALAR"
		}
	],
	"bufferViews":[
		{
			"buffer":0,
			"byteLength":1140,
			"byteOffset":0,
			"target":34962
		},
		{
			"buffer":0,
			"byteLength":760,
			"byteOffset":1140,
			"target":34962
		},
		{
			"buffer":0,
			"byteLength":438,
			"byteOffset":1900,
			"target":34963
		},
		{
			"buffer":0,
			"byteLength":7668,
			"byteOffset":2340,
			"target":34962
		},
		{
			"buffer":0,
			"byteLength":5112,
			"byteOffset":10008,
			"target":34962
		},
		{
			"buffer":0,
			"byteLength":4182,
			"byteOffset":15120,
			"target":34963
		},
		{
			"buffer":0,
			"byteLength":4260,
			"byteOffset":19304,
			"target":34962
		},
		{
			"buffer":0,
			"byteLength":2840,
			"byteOffset":23564,
			"target":34962
		},
		{
			"buffer":0,
			"byteLength":1890,
			"byteOffset":26404,
			"target":34963
		},
		{
			"buffer":0,
			"byteLength":1728,
			"byteOffset":28296,
			"target":34962
		},
		{
			"buffer":0,
			"byteLength":1152,
			"byteOffset":30024,
			"target":34962
		},
		{
			"buffer":0,
			"byteLength":642,
			"byteOffset":31176,
			"target":34963
		},
		{
			"buffer":0,
			"byteLength":8256,
			"byteOffset":31820,
			"target":34962
		},
		{
			"buffer":0,
			"byteLength":5504,
			"byteOffset":40076,
			"target":34962
		},
		{
			"buffer":0,
			"byteLength":3990,
			"byteOffset":45580,
			"target":34963
		},
		{
			"buffer":0,
			"byteLength":18828,
			"byteOffset":49572,
			"target":34962
		},
		{
			"buffer":0,
			"byteLength":12552,
			"byteOffset":68400,
			"target":34962
		},
		{
			"buffer":0,
			"byteLength":11982,
			"byteOffset":80952,
			"target":34963
		},
		{
			"buffer":0,
			"byteLength":7032,
			"byteOffset":92936,
			"target":34962
		},
		{
			"buffer":0,
			"byteLength":4688,
			"byteOffset":99968,
			"target":34962
		},
		{
			"buffer":0,
			"byteLength":3408,
			"byteOffset":104656,
			"target":34963
		},
		{
			"buffer":0,
			"byteLength":3360,
			"byteOffset":108064,
			"target":34962
		},
		{
			"buffer":0,
			"byteLength":2240,
			"byteOffset":111424,
			"target":34962
		},
		{
			"buffer":0,
			"byteLength":1224,
			"byteOffset":113664,
			"target":34963
		},
		{
			"buffer":0,
			"byteLength":2856,
			"byteOffset":114888,
			"target":34962
		},
		{
			"buffer":0,
			"byteLength":1904,
			"byteOffset":117744,
			"target":34962
		},
		{
			"buffer":0,
			"byteLength":1344,
			"byteOffset":119648,
			"target":34963
		},
		{
			"buffer":0,
			"byteLength":3012,
			"byteOffset":120992,
			"target":34962
		},
		{
			"buffer":0,
			"byteLength":2008,
			"byteOffset":124004,
			"target":34962
		},
		{
			"buffer":0,
			"byteLength":1164,
			"byteOffset":126012,
			"target":34963
		},
		{
			"buffer":0,
			"byteLength":2364,
			"byteOffset":127176,
			"target":34962
		},
		{
			"buffer":0,
			"byteLength":1576,
			"byteOffset":129540,
			"target":34962
		},
		{
			"buffer":0,
			"byteLength":1224,
			"byteOffset":131116,
			"target":34963
		},
		{
			"buffer":0,
			"byteLength":3096,
			"byteOffset":132340,
			"target":34962
		},
		{
			"buffer":0,
			"byteLength":2064,
			"byteOffset":135436,
			"target":34962
		},
		{
			"buffer":0,
			"byteLength":1404,
			"byteOffset":137500,
			"target":34963
		},
		{
			"buffer":0,
			"byteLength":1908,
			"byteOffset":138904,
			"target":34962
		},
		{
			"buffer":0,
			"byteLength":1272,
			"byteOffset":140812,
			"target":34962
		},
		{
			"buffer":0,
			"byteLength":816,
			"byteOffset":142084,
			"target":34963
		},
		{
			"buffer":0,
			"byteLength":1644,
			"byteOffset":142900,
			"target":34962
		},
		{
			"buffer":0,
			"byteLength":1096,
			"byteOffset":144544,
			"target":34962
		},
		{
			"buffer":0,
			"byteLength":948,
			"byteOffset":145640,
			"target":34963
		}
	],
	"buffers":[
		{
			"byteLength":146588,
			"uri":"montana.bin"
		}
	]
}
