{
	"asset":{
		"generator":"Khronos glTF Blender I/O v4.0.44",
		"version":"2.0"
	},
	"scene":0,
	"scenes":[
		{
			"name":"Scene",
			"nodes":[
				0,
				1,
				2,
				3,
				4,
				5,
				6,
				7,
				8,
				9,
				10,
				11,
				12,
				13,
				14,
				15,
				16,
				17,
				18,
				19,
				20,
				21,
				22,
				23,
				24,
				25,
				26,
				27,
				28,
				29,
				30,
				31,
				32,
				33,
				34,
				35,
				36,
				37,
				38,
				39,
				40,
				41,
				42,
				43,
				44,
				45,
				46,
				47,
				48,
				49,
				50,
				51,
				52,
				53,
				54,
				55,
				56,
				57,
				58,
				59,
				60,
				61,
				62,
				63,
				64,
				65,
				66,
				67,
				68
			]
		}
	],
	"nodes":[
		{
			"mesh":0,
			"name":"Plane"
		},
		{
			"name":"0_HANDLE",
			"rotation":[
				0.0058913989923894405,
				-0.30922192335128784,
				-0.0044993264600634575,
				0.9509611129760742
			],
			"translation":[
				0.1421061009168625,
				1.515982985496521,
				0.1013806015253067
			]
		},
		{
			"name":"0_ROT",
			"rotation":[
				0.0058913989923894405,
				-0.30922192335128784,
				-0.0044993264600634575,
				0.9509611129760742
			]
		},
		{
			"name":"1_HANDLE",
			"rotation":[
				-0.00530401524156332,
				0.2649482786655426,
				-0.0014573961962014437,
				0.964246928691864
			],
			"translation":[
				3.2337727546691895,
				1.3907567262649536,
				14.463626861572266
			]
		},
		{
			"name":"1_ROT",
			"rotation":[
				-0.00530401524156332,
				0.2649482786655426,
				-0.0014573961962014437,
				0.964246928691864
			]
		},
		{
			"name":"2_HANDLE",
			"rotation":[
				0.0006729711312800646,
				-0.4629178047180176,
				-0.00013917162141297013,
				0.8864009380340576
			],
			"translation":[
				-2.973449468612671,
				1.3531014919281006,
				9.748165130615234
			]
		},
		{
			"name":"2_ROT",
			"rotation":[
				0.0006729711312800646,
				-0.4629178047180176,
				-0.00013917157775722444,
				0.8864009380340576
			]
		},
		{
			"name":"3_HANDLE",
			"rotation":[
				0.000601540959905833,
				-0.6701655983924866,
				-0.0009984798962250352,
				0.7422106862068176
			],
			"translation":[
				-3.1856677532196045,
				1.507964015007019,
				-4.275167465209961
			]
		},
		{
			"name":"3_ROT",
			"rotation":[
				0.000601540959905833,
				-0.6701655983924866,
				-0.0009984798962250352,
				0.7422106862068176
			]
		},
		{
			"name":"4_HANDLE",
			"rotation":[
				0,
				0.9185410737991333,
				0,
				0.39532560110092163
			],
			"translation":[
				6.449802875518799,
				1.702677845954895,
				-3.3226218223571777
			]
		},
		{
			"name":"4_ROT",
			"rotation":[
				0,
				0.9185411334037781,
				0,
				0.3953256905078888
			]
		},
		{
			"name":"5_HANDLE",
			"rotation":[
				0,
				-0.9568097591400146,
				0,
				0.2907147705554962
			],
			"translation":[
				-1.484031081199646,
				1.649999976158142,
				-13.428400993347168
			]
		},
		{
			"name":"5_ROT",
			"rotation":[
				0,
				-0.9568097591400146,
				0,
				0.2907147705554962
			]
		},
		{
			"name":"6_HANDLE",
			"rotation":[
				-0.008253699168562889,
				-0.9975605010986328,
				-0.0006285241106525064,
				0.06931515038013458
			],
			"translation":[
				6.939483642578125,
				1.5387189388275146,
				-13.367968559265137
			]
		},
		{
			"name":"6_ROT",
			"rotation":[
				-0.008253699168562889,
				-0.9975605010986328,
				-0.0006285242270678282,
				0.06931515038013458
			]
		},
		{
			"name":"7_HANDLE",
			"rotation":[
				0,
				-0.22491739690303802,
				0,
				0.9743778705596924
			],
			"translation":[
				6.049949645996094,
				1.723710298538208,
				-5.7238359451293945
			]
		},
		{
			"name":"7_ROT",
			"rotation":[
				0,
				-0.22491739690303802,
				0,
				0.9743778705596924
			]
		},
		{
			"name":"8_HANDLE",
			"rotation":[
				0,
				-0.17060495913028717,
				0,
				0.9853395223617554
			],
			"translation":[
				1.9529991149902344,
				1.5912002325057983,
				-6.097598075866699
			]
		},
		{
			"name":"8_ROT",
			"rotation":[
				0,
				-0.17060495913028717,
				0,
				0.9853395223617554
			]
		},
		{
			"name":"9_HANDLE",
			"rotation":[
				-0.007847830653190613,
				0,
				0,
				0.9999692440032959
			],
			"translation":[
				5.4260573387146,
				1.5907912254333496,
				-8.544493675231934
			]
		},
		{
			"name":"9_ROT",
			"rotation":[
				-0.007847830653190613,
				0,
				0,
				0.9999692440032959
			]
		},
		{
			"name":"10_HANDLE",
			"rotation":[
				0.005874169059097767,
				-0.9995375871658325,
				0.002934190910309553,
				0.02969236671924591
			],
			"translation":[
				8.726341247558594,
				1.7692393064498901,
				-5.633240222930908
			]
		},
		{
			"name":"10_ROT",
			"rotation":[
				0.005874169059097767,
				-0.9995375871658325,
				0.0029341913759708405,
				0.0296923965215683
			]
		},
		{
			"name":"11_HANDLE",
			"rotation":[
				0.0015989834209904075,
				-0.9999325275421143,
				-0.005111565347760916,
				0.010309272445738316
			],
			"translation":[
				8.130247116088867,
				1.8216845989227295,
				-8.16165542602539
			]
		},
		{
			"name":"11_ROT",
			"rotation":[
				0.0015989834209904075,
				-0.9999325275421143,
				-0.005111565347760916,
				0.010309272445738316
			]
		},
		{
			"name":"12_HANDLE",
			"rotation":[
				0.005104437004774809,
				0.11354834586381912,
				0.005510253366082907,
				0.9935041069984436
			],
			"translation":[
				10.89416217803955,
				1.7740281820297241,
				-4.584753036499023
			]
		},
		{
			"name":"12_ROT",
			"rotation":[
				0.005104437004774809,
				0.11354833841323853,
				0.005510253366082907,
				0.9935041069984436
			]
		},
		{
			"name":"13_HANDLE",
			"rotation":[
				0.0027352278120815754,
				0.11135458946228027,
				0.0022890607360750437,
				0.9937743544578552
			],
			"translation":[
				10.659796714782715,
				1.7827682495117188,
				-7.854166030883789
			]
		},
		{
			"name":"13_ROT",
			"rotation":[
				0.0027352278120815754,
				0.11135457456111908,
				0.0022890607360750437,
				0.9937743544578552
			]
		},
		{
			"name":"14_HANDLE",
			"rotation":[
				-0.005325900856405497,
				0.24409760534763336,
				0.006874036509543657,
				0.9697117805480957
			],
			"translation":[
				13.949743270874023,
				1.767724871635437,
				-4.254638195037842
			]
		},
		{
			"name":"14_ROT",
			"rotation":[
				-0.005325900856405497,
				0.24409760534763336,
				0.006874036509543657,
				0.9697117805480957
			]
		},
		{
			"name":"15_HANDLE",
			"rotation":[
				-0.0017504356801509857,
				0.987654447555542,
				-0.0041409204714000225,
				0.15658435225486755
			],
			"translation":[
				13.448473930358887,
				1.4980497360229492,
				-12.136396408081055
			]
		},
		{
			"name":"15_ROT",
			"rotation":[
				-0.0017504356801509857,
				0.987654447555542,
				-0.0041409204714000225,
				0.15658435225486755
			]
		},
		{
			"name":"16_HANDLE",
			"rotation":[
				0.0060937064699828625,
				0.8152754902839661,
				-0.004305317997932434,
				0.5790252685546875
			],
			"translation":[
				19.996217727661133,
				1.4991023540496826,
				-6.466074466705322
			]
		},
		{
			"name":"16_ROT",
			"rotation":[
				0.006093707401305437,
				0.8152754902839661,
				-0.004305317997932434,
				0.5790252685546875
			]
		},
		{
			"name":"17_HANDLE",
			"rotation":[
				0,
				-0.8791729211807251,
				0,
				0.4765028953552246
			],
			"translation":[
				9.193541526794434,
				1.8173530101776123,
				-0.8860129117965698
			]
		},
		{
			"name":"17_ROT",
			"rotation":[
				0,
				-0.8791729211807251,
				0,
				0.4765028953552246
			]
		},
		{
			"name":"18_HANDLE",
			"rotation":[
				0,
				0.5233134627342224,
				0,
				0.8521403074264526
			],
			"translation":[
				14.240277290344238,
				1.917557716369629,
				1.541515827178955
			]
		},
		{
			"name":"18_ROT",
			"rotation":[
				0,
				0.5233134627342224,
				0,
				0.8521403074264526
			]
		},
		{
			"name":"19_HANDLE",
			"rotation":[
				0,
				0.5341058969497681,
				0,
				0.8454176187515259
			],
			"translation":[
				14.001431465148926,
				1.8863128423690796,
				5.642622470855713
			]
		},
		{
			"name":"19_ROT",
			"rotation":[
				0,
				0.5341058969497681,
				0,
				0.8454176187515259
			]
		},
		{
			"name":"20_HANDLE",
			"rotation":[
				0.0007085694815032184,
				0.45170196890830994,
				-0.001281140954233706,
				0.8921676874160767
			],
			"translation":[
				11.840399742126465,
				1.7858041524887085,
				5.812327861785889
			]
		},
		{
			"name":"20_ROT",
			"rotation":[
				0.0007085694815032184,
				0.45170196890830994,
				-0.0012811410706490278,
				0.8921676874160767
			]
		},
		{
			"name":"21_HANDLE",
			"rotation":[
				-0.0038937011267989874,
				-0.9398095011711121,
				0.0031066955998539925,
				0.34166258573532104
			],
			"translation":[
				8.717331886291504,
				1.820013165473938,
				8.141605377197266
			]
		},
		{
			"name":"21_ROT",
			"rotation":[
				-0.0038937011267989874,
				-0.9398095011711121,
				0.0031066955998539925,
				0.34166258573532104
			]
		},
		{
			"name":"22_HANDLE",
			"rotation":[
				0.0036349096335470676,
				-0.16019704937934875,
				-0.004101346246898174,
				0.9870699048042297
			],
			"translation":[
				7.911200523376465,
				1.8495030403137207,
				12.230964660644531
			]
		},
		{
			"name":"22_ROT",
			"rotation":[
				0.0036349096335470676,
				-0.16019704937934875,
				-0.004101346246898174,
				0.9870699048042297
			]
		},
		{
			"name":"23_HANDLE",
			"rotation":[
				0,
				0.9119927883148193,
				0,
				0.41020625829696655
			],
			"translation":[
				13.29237174987793,
				1.7901147603988647,
				7.841001510620117
			]
		},
		{
			"name":"23_ROT",
			"rotation":[
				0,
				0.9119927883148193,
				0,
				0.41020625829696655
			]
		},
		{
			"name":"24_HANDLE",
			"rotation":[
				0.0006833202787674963,
				-0.6461997628211975,
				-0.002795569133013487,
				0.7631629109382629
			],
			"translation":[
				12.65857982635498,
				1.7742936611175537,
				11.258749961853027
			]
		},
		{
			"name":"24_ROT",
			"rotation":[
				0.0006833202787674963,
				-0.6461997628211975,
				-0.002795569133013487,
				0.7631629109382629
			]
		},
		{
			"name":"25_HANDLE",
			"rotation":[
				0,
				0.13563589751720428,
				0,
				0.9907587766647339
			],
			"translation":[
				13.742448806762695,
				1.7574023008346558,
				12.512002944946289
			]
		},
		{
			"name":"25_ROT",
			"rotation":[
				0,
				0.13563589751720428,
				0,
				0.9907587766647339
			]
		},
		{
			"name":"26_HANDLE",
			"rotation":[
				-0.012171363458037376,
				0.9999231696128845,
				-0.0023192865774035454,
				0.0005547383916564286
			],
			"translation":[
				14.729927062988281,
				1.9118776321411133,
				9.834232330322266
			]
		},
		{
			"name":"26_ROT",
			"rotation":[
				-0.012171363458037376,
				0.9999231696128845,
				-0.0023192865774035454,
				0.0005547383916564286
			]
		},
		{
			"name":"27_HANDLE",
			"rotation":[
				0,
				-0.7723151445388794,
				0,
				0.6352396011352539
			],
			"translation":[
				6.256259918212891,
				1.730188012123108,
				1.7431539297103882
			]
		},
		{
			"name":"27_ROT",
			"rotation":[
				0,
				-0.7723151445388794,
				0,
				0.6352396011352539
			]
		},
		{
			"name":"28_HANDLE",
			"rotation":[
				0,
				0.7336560487747192,
				0,
				0.6795210242271423
			],
			"translation":[
				9.78879165649414,
				1.8959919214248657,
				0.9595761895179749
			]
		},
		{
			"name":"28_ROT",
			"rotation":[
				0,
				0.7336560487747192,
				0,
				0.6795210242271423
			]
		},
		{
			"name":"29_HANDLE",
			"rotation":[
				0,
				-0.8363067507743835,
				0,
				0.5482619404792786
			],
			"translation":[
				2.9466235637664795,
				1.606269359588623,
				0.7638867497444153
			]
		},
		{
			"name":"29_ROT",
			"rotation":[
				0,
				-0.8363067507743835,
				0,
				0.5482619404792786
			]
		},
		{
			"name":"30_HANDLE",
			"rotation":[
				-0.009740949608385563,
				-0.08128370344638824,
				0.009481657296419144,
				0.9965983033180237
			],
			"translation":[
				13.0763521194458,
				1.7867960929870605,
				-5.393155574798584
			]
		},
		{
			"name":"30_ROT",
			"rotation":[
				-0.009740949608385563,
				-0.08128369599580765,
				0.009481657296419144,
				0.9965983033180237
			]
		},
		{
			"name":"31_HANDLE",
			"rotation":[
				0.012139086611568928,
				-0.20016221702098846,
				0.008093619719147682,
				0.9796541929244995
			],
			"translation":[
				9.747075080871582,
				1.7618129253387451,
				-4.382925987243652
			]
		},
		{
			"name":"31_ROT",
			"rotation":[
				0.012139086611568928,
				-0.20016221702098846,
				0.008093619719147682,
				0.9796541929244995
			]
		},
		{
			"name":"32_HANDLE",
			"rotation":[
				-0.0001684261078480631,
				-0.9997807741165161,
				0.018962416797876358,
				0.008880117908120155
			],
			"translation":[
				5.174196243286133,
				1.68632173538208,
				-5.276824951171875
			]
		},
		{
			"name":"32_ROT",
			"rotation":[
				-0.0001684261078480631,
				-0.9997807741165161,
				0.018962416797876358,
				0.008880117908120155
			]
		},
		{
			"name":"33_HANDLE",
			"rotation":[
				0,
				0.44784167408943176,
				0,
				0.8941128849983215
			],
			"translation":[
				20.085655212402344,
				1.5528380870819092,
				14.985929489135742
			]
		},
		{
			"name":"33_ROT",
			"rotation":[
				0,
				0.44784167408943176,
				0,
				0.8941128849983215
			]
		}
	],
	"meshes":[
		{
			"name":"Plane",
			"primitives":[
				{
					"attributes":{
						"POSITION":0,
						"NORMAL":1,
						"TEXCOORD_0":2
					},
					"indices":3
				}
			]
		}
	],
	"accessors":[
		{
			"bufferView":0,
			"componentType":5126,
			"count":2878,
			"max":[
				22.544771194458008,
				5.500957489013672,
				15.910727500915527
			],
			"min":[
				-6.9295125007629395,
				-2.5846588611602783,
				-15.584357261657715
			],
			"type":"VEC3"
		},
		{
			"bufferView":1,
			"componentType":5126,
			"count":2878,
			"type":"VEC3"
		},
		{
			"bufferView":2,
			"componentType":5126,
			"count":2878,
			"type":"VEC2"
		},
		{
			"bufferView":3,
			"componentType":5123,
			"count":7002,
			"type":"SCALAR"
		}
	],
	"bufferViews":[
		{
			"buffer":0,
			"byteLength":34536,
			"byteOffset":0,
			"target":34962
		},
		{
			"buffer":0,
			"byteLength":34536,
			"byteOffset":34536,
			"target":34962
		},
		{
			"buffer":0,
			"byteLength":23024,
			"byteOffset":69072,
			"target":34962
		},
		{
			"buffer":0,
			"byteLength":14004,
			"byteOffset":92096,
			"target":34963
		}
	],
	"buffers":[
		{
			"byteLength":106100,
			"uri":"apart.bin"
		}
	]
}
